<?xml version="1.0" encoding="UTF-8" standalone="no"?>
<!-- Created with Inkscape (http://www.inkscape.org/) -->

<svg
   xmlns:dc="http://purl.org/dc/elements/1.1/"
   xmlns:cc="http://creativecommons.org/ns#"
   xmlns:rdf="http://www.w3.org/1999/02/22-rdf-syntax-ns#"
   xmlns:svg="http://www.w3.org/2000/svg"
   xmlns="http://www.w3.org/2000/svg"
   version="1.1"
   width="616.80249"
   height="616.79248"
   id="svg2">
  <defs
     id="defs4">
    <clipPath
       id="clipPath2999">
      <path
         d="m 0,612.288 858.898,0 L 858.898,0 0,0 0,612.288 z"
         id="path3001" />
    </clipPath>
  </defs>
  <metadata
     id="metadata7">
    <rdf:RDF>
      <cc:Work
         rdf:about="">
        <dc:format>image/svg+xml</dc:format>
        <dc:type
           rdf:resource="http://purl.org/dc/dcmitype/StillImage" />
        <dc:title></dc:title>
      </cc:Work>
    </rdf:RDF>
  </metadata>
  <g
     transform="translate(391.25839,-358.2516)"
     id="layer1">
    <g
       transform="matrix(1.25,0,0,-1.25,-619.95889,1022.6651)"
       id="g2995">
      <g
         clip-path="url(#clipPath2999)"
         id="g2997">
        <g
           transform="translate(305.2969,45.6494)"
           id="g3003">
          <path
             d="m 0,0 c -63.292,0 -114.784,51.49 -114.784,114.779 l 0,248.769 c 0,63.29 51.492,114.781 114.784,114.781 l 248.769,0 c 63.292,0 114.784,-51.491 114.784,-114.781 l 0,-248.769 C 363.553,51.49 312.061,0 248.769,0 L 0,0 z"
             id="path3005"
             style="fill:#80cc28;fill-opacity:1;fill-rule:evenodd;stroke:none" />
        </g>
        <g
           transform="translate(554.0654,531.5308)"
           id="g3007">
          <path
             d="m 0,0 -248.769,0 c -32.678,0 -63.4,-12.725 -86.505,-35.831 -23.106,-23.105 -35.831,-53.826 -35.831,-86.502 l 0,-248.769 c 0,-32.675 12.725,-63.395 35.83,-86.5 23.107,-23.106 53.828,-35.832 86.506,-35.832 l 248.769,0 c 32.676,0 63.397,12.726 86.504,35.832 23.107,23.105 35.833,53.825 35.833,86.5 l 0,248.769 c 0,32.676 -12.726,63.396 -35.833,86.503 C 63.397,-12.725 32.677,0 0,0 m 0,-15.105 c 59.221,0 107.231,-48.008 107.231,-107.228 l 0,-248.769 c 0,-59.216 -48.01,-107.227 -107.231,-107.227 l -248.769,0 c -59.225,0 -107.231,48.011 -107.231,107.227 l 0,248.769 c 0,59.22 48.006,107.228 107.231,107.228 l 248.769,0"
             id="path3009"
             style="fill:#231f20;fill-opacity:1;fill-rule:nonzero;stroke:none" />
        </g>
        <g
           transform="translate(317.9634,76.79)"
           id="g3011">
          <path
             d="m 0,0 c -53.188,0 -96.305,43.117 -96.305,96.31 l 0,223.428 c 0,53.191 43.117,96.308 96.305,96.308 l 223.425,0 c 53.194,0 96.316,-43.117 96.316,-96.308 l 0,-223.428 C 319.741,43.117 276.619,0 223.425,0 L 0,0 z"
             id="path3013"
             style="fill:#231f20;fill-opacity:1;fill-rule:evenodd;stroke:none" />
        </g>
        <g
           transform="translate(509.5508,266.0664)"
           id="g3015">
          <path
             d="m 0,0 c -3.151,0 -5.703,2.548 -5.703,5.704 0,3.156 2.552,5.699 5.703,5.699 3.152,0 5.704,-2.543 5.704,-5.699 C 5.704,2.548 3.152,0 0,0"
             id="path3017"
             style="fill:#80cc28;fill-opacity:1;fill-rule:nonzero;stroke:none" />
        </g>
        <g
           transform="translate(498.1436,266.0664)"
           id="g3019">
          <path
             d="m 0,0 c -3.146,0 -5.704,2.548 -5.704,5.704 0,3.156 2.558,5.699 5.704,5.699 3.147,0 5.704,-2.543 5.704,-5.699 C 5.704,2.548 3.147,0 0,0"
             id="path3021"
             style="fill:#80cc28;fill-opacity:1;fill-rule:nonzero;stroke:none" />
        </g>
        <g
           transform="translate(498.1436,254.6494)"
           id="g3023">
          <path
             d="m 0,0 c -3.146,0 -5.704,2.552 -5.704,5.703 0,3.157 2.558,5.714 5.704,5.714 3.147,0 5.704,-2.557 5.704,-5.714 C 5.704,2.552 3.147,0 0,0"
             id="path3025"
             style="fill:#80cc28;fill-opacity:1;fill-rule:nonzero;stroke:none" />
        </g>
        <g
           transform="translate(486.7363,266.0664)"
           id="g3027">
          <path
             d="m 0,0 c -3.157,0 -5.704,2.548 -5.704,5.704 0,3.156 2.547,5.699 5.704,5.699 3.146,0 5.703,-2.543 5.703,-5.699 C 5.703,2.548 3.146,0 0,0"
             id="path3029"
             style="fill:#80cc28;fill-opacity:1;fill-rule:nonzero;stroke:none" />
        </g>
        <g
           transform="translate(486.7363,254.6494)"
           id="g3031">
          <path
             d="m 0,0 c -3.157,0 -5.704,2.552 -5.704,5.703 0,3.157 2.547,5.714 5.704,5.714 3.146,0 5.703,-2.557 5.703,-5.714 C 5.703,2.552 3.146,0 0,0"
             id="path3033"
             style="fill:#80cc28;fill-opacity:1;fill-rule:nonzero;stroke:none" />
        </g>
        <g
           transform="translate(486.7363,243.2412)"
           id="g3035">
          <path
             d="m 0,0 c -3.157,0 -5.704,2.553 -5.704,5.704 0,3.152 2.547,5.704 5.704,5.704 3.146,0 5.703,-2.552 5.703,-5.704 C 5.703,2.553 3.146,0 0,0"
             id="path3037"
             style="fill:#80cc28;fill-opacity:1;fill-rule:nonzero;stroke:none" />
        </g>
        <g
           transform="translate(475.3184,266.0664)"
           id="g3039">
          <path
             d="m 0,0 c -3.146,0 -5.698,2.548 -5.698,5.704 0,3.156 2.552,5.699 5.698,5.699 3.157,0 5.714,-2.543 5.714,-5.699 C 5.714,2.548 3.157,0 0,0"
             id="path3041"
             style="fill:#80cc28;fill-opacity:1;fill-rule:nonzero;stroke:none" />
        </g>
        <g
           transform="translate(475.3184,254.6494)"
           id="g3043">
          <path
             d="m 0,0 c -3.146,0 -5.698,2.552 -5.698,5.703 0,3.157 2.552,5.714 5.698,5.714 3.157,0 5.714,-2.557 5.714,-5.714 C 5.714,2.552 3.157,0 0,0"
             id="path3045"
             style="fill:#80cc28;fill-opacity:1;fill-rule:nonzero;stroke:none" />
        </g>
        <g
           transform="translate(475.3184,243.2412)"
           id="g3047">
          <path
             d="m 0,0 c -3.146,0 -5.698,2.553 -5.698,5.704 0,3.152 2.552,5.704 5.698,5.704 3.157,0 5.714,-2.552 5.714,-5.704 C 5.714,2.553 3.157,0 0,0"
             id="path3049"
             style="fill:#80cc28;fill-opacity:1;fill-rule:nonzero;stroke:none" />
        </g>
        <g
           transform="translate(475.3184,231.834)"
           id="g3051">
          <path
             d="m 0,0 c -3.146,0 -5.698,2.552 -5.698,5.704 0,3.151 2.552,5.703 5.698,5.703 3.157,0 5.714,-2.552 5.714,-5.703 C 5.714,2.552 3.157,0 0,0"
             id="path3053"
             style="fill:#80cc28;fill-opacity:1;fill-rule:nonzero;stroke:none" />
        </g>
        <g
           transform="translate(463.916,357.3418)"
           id="g3055">
          <path
             d="m 0,0 c -3.151,0 -5.703,2.552 -5.703,5.699 0,3.152 2.552,5.704 5.703,5.704 3.146,0 5.704,-2.552 5.704,-5.704 C 5.704,2.552 3.146,0 0,0"
             id="path3057"
             style="fill:#80cc28;fill-opacity:1;fill-rule:nonzero;stroke:none" />
        </g>
        <g
           transform="translate(463.916,345.9297)"
           id="g3059">
          <path
             d="m 0,0 c -3.151,0 -5.703,2.552 -5.703,5.708 0,3.152 2.552,5.704 5.703,5.704 3.146,0 5.704,-2.552 5.704,-5.704 C 5.704,2.552 3.146,0 0,0"
             id="path3061"
             style="fill:#80cc28;fill-opacity:1;fill-rule:nonzero;stroke:none" />
        </g>
        <g
           transform="translate(463.916,334.5171)"
           id="g3063">
          <path
             d="m 0,0 c -3.151,0 -5.703,2.552 -5.703,5.708 0,3.147 2.552,5.705 5.703,5.705 3.146,0 5.704,-2.558 5.704,-5.705 C 5.704,2.552 3.146,0 0,0"
             id="path3065"
             style="fill:#80cc28;fill-opacity:1;fill-rule:nonzero;stroke:none" />
        </g>
        <g
           transform="translate(463.916,323.1143)"
           id="g3067">
          <path
             d="m 0,0 c -3.151,0 -5.703,2.547 -5.703,5.694 0,3.157 2.552,5.709 5.703,5.709 3.146,0 5.704,-2.552 5.704,-5.709 C 5.704,2.547 3.146,0 0,0"
             id="path3069"
             style="fill:#80cc28;fill-opacity:1;fill-rule:nonzero;stroke:none" />
        </g>
        <g
           transform="translate(463.916,311.7021)"
           id="g3071">
          <path
             d="m 0,0 c -3.151,0 -5.703,2.552 -5.703,5.704 0,3.151 2.552,5.708 5.703,5.708 3.146,0 5.704,-2.557 5.704,-5.708 C 5.704,2.552 3.146,0 0,0"
             id="path3073"
             style="fill:#80cc28;fill-opacity:1;fill-rule:nonzero;stroke:none" />
        </g>
        <g
           transform="translate(463.916,300.2891)"
           id="g3075">
          <path
             d="m 0,0 c -3.151,0 -5.703,2.558 -5.703,5.704 0,3.152 2.552,5.709 5.703,5.709 3.146,0 5.704,-2.557 5.704,-5.709 C 5.704,2.558 3.146,0 0,0"
             id="path3077"
             style="fill:#80cc28;fill-opacity:1;fill-rule:nonzero;stroke:none" />
        </g>
        <g
           transform="translate(463.916,288.8721)"
           id="g3079">
          <path
             d="m 0,0 c -3.151,0 -5.703,2.557 -5.703,5.714 0,3.151 2.552,5.703 5.703,5.703 3.146,0 5.704,-2.552 5.704,-5.703 C 5.704,2.557 3.146,0 0,0"
             id="path3081"
             style="fill:#80cc28;fill-opacity:1;fill-rule:nonzero;stroke:none" />
        </g>
        <g
           transform="translate(463.916,277.4697)"
           id="g3083">
          <path
             d="m 0,0 c -3.151,0 -5.703,2.552 -5.703,5.708 0,3.147 2.552,5.694 5.703,5.694 3.146,0 5.704,-2.547 5.704,-5.694 C 5.704,2.552 3.146,0 0,0"
             id="path3085"
             style="fill:#80cc28;fill-opacity:1;fill-rule:nonzero;stroke:none" />
        </g>
        <g
           transform="translate(463.916,266.0664)"
           id="g3087">
          <path
             d="m 0,0 c -3.151,0 -5.703,2.548 -5.703,5.704 0,3.156 2.552,5.699 5.703,5.699 3.146,0 5.704,-2.543 5.704,-5.699 C 5.704,2.548 3.146,0 0,0"
             id="path3089"
             style="fill:#80cc28;fill-opacity:1;fill-rule:nonzero;stroke:none" />
        </g>
        <g
           transform="translate(463.916,254.6494)"
           id="g3091">
          <path
             d="m 0,0 c -3.151,0 -5.703,2.552 -5.703,5.703 0,3.157 2.552,5.714 5.703,5.714 3.146,0 5.704,-2.557 5.704,-5.714 C 5.704,2.552 3.146,0 0,0"
             id="path3093"
             style="fill:#80cc28;fill-opacity:1;fill-rule:nonzero;stroke:none" />
        </g>
        <g
           transform="translate(463.916,243.2412)"
           id="g3095">
          <path
             d="m 0,0 c -3.151,0 -5.703,2.553 -5.703,5.704 0,3.152 2.552,5.704 5.703,5.704 3.146,0 5.704,-2.552 5.704,-5.704 C 5.704,2.553 3.146,0 0,0"
             id="path3097"
             style="fill:#80cc28;fill-opacity:1;fill-rule:nonzero;stroke:none" />
        </g>
        <g
           transform="translate(463.916,231.834)"
           id="g3099">
          <path
             d="m 0,0 c -3.151,0 -5.703,2.552 -5.703,5.704 0,3.151 2.552,5.703 5.703,5.703 3.146,0 5.704,-2.552 5.704,-5.703 C 5.704,2.552 3.146,0 0,0"
             id="path3101"
             style="fill:#80cc28;fill-opacity:1;fill-rule:nonzero;stroke:none" />
        </g>
        <g
           transform="translate(463.916,220.417)"
           id="g3103">
          <path
             d="m 0,0 c -3.151,0 -5.703,2.562 -5.703,5.713 0,3.147 2.552,5.704 5.703,5.704 3.146,0 5.704,-2.557 5.704,-5.704 C 5.704,2.562 3.146,0 0,0"
             id="path3105"
             style="fill:#80cc28;fill-opacity:1;fill-rule:nonzero;stroke:none" />
        </g>
        <g
           transform="translate(452.499,357.3418)"
           id="g3107">
          <path
             d="m 0,0 c -3.147,0 -5.704,2.552 -5.704,5.699 0,3.152 2.557,5.704 5.704,5.704 3.151,0 5.714,-2.552 5.714,-5.704 C 5.714,2.552 3.151,0 0,0"
             id="path3109"
             style="fill:#80cc28;fill-opacity:1;fill-rule:nonzero;stroke:none" />
        </g>
        <g
           transform="translate(452.499,345.9297)"
           id="g3111">
          <path
             d="m 0,0 c -3.147,0 -5.704,2.552 -5.704,5.708 0,3.152 2.557,5.704 5.704,5.704 3.151,0 5.714,-2.552 5.714,-5.704 C 5.714,2.552 3.151,0 0,0"
             id="path3113"
             style="fill:#80cc28;fill-opacity:1;fill-rule:nonzero;stroke:none" />
        </g>
        <g
           transform="translate(452.499,334.5171)"
           id="g3115">
          <path
             d="m 0,0 c -3.147,0 -5.704,2.552 -5.704,5.708 0,3.147 2.557,5.705 5.704,5.705 3.151,0 5.714,-2.558 5.714,-5.705 C 5.714,2.552 3.151,0 0,0"
             id="path3117"
             style="fill:#80cc28;fill-opacity:1;fill-rule:nonzero;stroke:none" />
        </g>
        <g
           transform="translate(452.499,323.1143)"
           id="g3119">
          <path
             d="m 0,0 c -3.147,0 -5.704,2.547 -5.704,5.694 0,3.157 2.557,5.709 5.704,5.709 3.151,0 5.714,-2.552 5.714,-5.709 C 5.714,2.547 3.151,0 0,0"
             id="path3121"
             style="fill:#80cc28;fill-opacity:1;fill-rule:nonzero;stroke:none" />
        </g>
        <g
           transform="translate(452.499,311.7021)"
           id="g3123">
          <path
             d="m 0,0 c -3.147,0 -5.704,2.552 -5.704,5.704 0,3.151 2.557,5.708 5.704,5.708 3.151,0 5.714,-2.557 5.714,-5.708 C 5.714,2.552 3.151,0 0,0"
             id="path3125"
             style="fill:#80cc28;fill-opacity:1;fill-rule:nonzero;stroke:none" />
        </g>
        <g
           transform="translate(452.499,300.2891)"
           id="g3127">
          <path
             d="m 0,0 c -3.147,0 -5.704,2.558 -5.704,5.704 0,3.152 2.557,5.709 5.704,5.709 3.151,0 5.714,-2.557 5.714,-5.709 C 5.714,2.558 3.151,0 0,0"
             id="path3129"
             style="fill:#80cc28;fill-opacity:1;fill-rule:nonzero;stroke:none" />
        </g>
        <g
           transform="translate(452.499,288.8721)"
           id="g3131">
          <path
             d="m 0,0 c -3.147,0 -5.704,2.557 -5.704,5.714 0,3.151 2.557,5.703 5.704,5.703 3.151,0 5.714,-2.552 5.714,-5.703 C 5.714,2.557 3.151,0 0,0"
             id="path3133"
             style="fill:#80cc28;fill-opacity:1;fill-rule:nonzero;stroke:none" />
        </g>
        <g
           transform="translate(452.499,277.4697)"
           id="g3135">
          <path
             d="m 0,0 c -3.147,0 -5.704,2.552 -5.704,5.708 0,3.147 2.557,5.694 5.704,5.694 3.151,0 5.714,-2.547 5.714,-5.694 C 5.714,2.552 3.151,0 0,0"
             id="path3137"
             style="fill:#80cc28;fill-opacity:1;fill-rule:nonzero;stroke:none" />
        </g>
        <g
           transform="translate(452.499,266.0664)"
           id="g3139">
          <path
             d="m 0,0 c -3.147,0 -5.704,2.548 -5.704,5.704 0,3.156 2.557,5.699 5.704,5.699 3.151,0 5.714,-2.543 5.714,-5.699 C 5.714,2.548 3.151,0 0,0"
             id="path3141"
             style="fill:#80cc28;fill-opacity:1;fill-rule:nonzero;stroke:none" />
        </g>
        <g
           transform="translate(452.499,254.6494)"
           id="g3143">
          <path
             d="m 0,0 c -3.147,0 -5.704,2.552 -5.704,5.703 0,3.157 2.557,5.714 5.704,5.714 3.151,0 5.714,-2.557 5.714,-5.714 C 5.714,2.552 3.151,0 0,0"
             id="path3145"
             style="fill:#80cc28;fill-opacity:1;fill-rule:nonzero;stroke:none" />
        </g>
        <g
           transform="translate(452.499,243.2412)"
           id="g3147">
          <path
             d="m 0,0 c -3.147,0 -5.704,2.553 -5.704,5.704 0,3.152 2.557,5.704 5.704,5.704 3.151,0 5.714,-2.552 5.714,-5.704 C 5.714,2.553 3.151,0 0,0"
             id="path3149"
             style="fill:#80cc28;fill-opacity:1;fill-rule:nonzero;stroke:none" />
        </g>
        <g
           transform="translate(452.499,231.834)"
           id="g3151">
          <path
             d="m 0,0 c -3.147,0 -5.704,2.552 -5.704,5.704 0,3.151 2.557,5.703 5.704,5.703 3.151,0 5.714,-2.552 5.714,-5.703 C 5.714,2.552 3.151,0 0,0"
             id="path3153"
             style="fill:#80cc28;fill-opacity:1;fill-rule:nonzero;stroke:none" />
        </g>
        <g
           transform="translate(452.499,220.417)"
           id="g3155">
          <path
             d="m 0,0 c -3.147,0 -5.704,2.562 -5.704,5.713 0,3.147 2.557,5.704 5.704,5.704 3.151,0 5.714,-2.557 5.714,-5.704 C 5.714,2.562 3.151,0 0,0"
             id="path3157"
             style="fill:#80cc28;fill-opacity:1;fill-rule:nonzero;stroke:none" />
        </g>
        <g
           transform="translate(452.499,209.0186)"
           id="g3159">
          <path
             d="m 0,0 c -3.147,0 -5.704,2.553 -5.704,5.694 0,3.158 2.557,5.704 5.704,5.704 3.151,0 5.714,-2.546 5.714,-5.704 C 5.714,2.553 3.151,0 0,0"
             id="path3161"
             style="fill:#80cc28;fill-opacity:1;fill-rule:nonzero;stroke:none" />
        </g>
        <g
           transform="translate(441.0957,357.3418)"
           id="g3163">
          <path
             d="m 0,0 c -3.156,0 -5.708,2.552 -5.708,5.699 0,3.152 2.552,5.704 5.708,5.704 3.152,0 5.699,-2.552 5.699,-5.704 C 5.699,2.552 3.152,0 0,0"
             id="path3165"
             style="fill:#80cc28;fill-opacity:1;fill-rule:nonzero;stroke:none" />
        </g>
        <g
           transform="translate(441.0957,345.9297)"
           id="g3167">
          <path
             d="m 0,0 c -3.156,0 -5.708,2.552 -5.708,5.708 0,3.152 2.552,5.704 5.708,5.704 3.152,0 5.699,-2.552 5.699,-5.704 C 5.699,2.552 3.152,0 0,0"
             id="path3169"
             style="fill:#80cc28;fill-opacity:1;fill-rule:nonzero;stroke:none" />
        </g>
        <g
           transform="translate(441.0957,334.5171)"
           id="g3171">
          <path
             d="m 0,0 c -3.156,0 -5.708,2.552 -5.708,5.708 0,3.147 2.552,5.705 5.708,5.705 3.152,0 5.699,-2.558 5.699,-5.705 C 5.699,2.552 3.152,0 0,0"
             id="path3173"
             style="fill:#80cc28;fill-opacity:1;fill-rule:nonzero;stroke:none" />
        </g>
        <g
           transform="translate(441.0957,323.1143)"
           id="g3175">
          <path
             d="m 0,0 c -3.156,0 -5.708,2.547 -5.708,5.694 0,3.157 2.552,5.709 5.708,5.709 3.152,0 5.699,-2.552 5.699,-5.709 C 5.699,2.547 3.152,0 0,0"
             id="path3177"
             style="fill:#80cc28;fill-opacity:1;fill-rule:nonzero;stroke:none" />
        </g>
        <g
           transform="translate(441.0957,311.7021)"
           id="g3179">
          <path
             d="m 0,0 c -3.156,0 -5.708,2.552 -5.708,5.704 0,3.151 2.552,5.708 5.708,5.708 3.152,0 5.699,-2.557 5.699,-5.708 C 5.699,2.552 3.152,0 0,0"
             id="path3181"
             style="fill:#80cc28;fill-opacity:1;fill-rule:nonzero;stroke:none" />
        </g>
        <g
           transform="translate(441.0957,300.2891)"
           id="g3183">
          <path
             d="m 0,0 c -3.156,0 -5.708,2.558 -5.708,5.704 0,3.152 2.552,5.709 5.708,5.709 3.152,0 5.699,-2.557 5.699,-5.709 C 5.699,2.558 3.152,0 0,0"
             id="path3185"
             style="fill:#80cc28;fill-opacity:1;fill-rule:nonzero;stroke:none" />
        </g>
        <g
           transform="translate(441.0957,288.8721)"
           id="g3187">
          <path
             d="m 0,0 c -3.156,0 -5.708,2.557 -5.708,5.714 0,3.151 2.552,5.703 5.708,5.703 3.152,0 5.699,-2.552 5.699,-5.703 C 5.699,2.557 3.152,0 0,0"
             id="path3189"
             style="fill:#80cc28;fill-opacity:1;fill-rule:nonzero;stroke:none" />
        </g>
        <g
           transform="translate(441.0957,277.4697)"
           id="g3191">
          <path
             d="m 0,0 c -3.156,0 -5.708,2.552 -5.708,5.708 0,3.147 2.552,5.694 5.708,5.694 3.152,0 5.699,-2.547 5.699,-5.694 C 5.699,2.552 3.152,0 0,0"
             id="path3193"
             style="fill:#80cc28;fill-opacity:1;fill-rule:nonzero;stroke:none" />
        </g>
        <g
           transform="translate(441.0957,266.0664)"
           id="g3195">
          <path
             d="m 0,0 c -3.156,0 -5.708,2.548 -5.708,5.704 0,3.156 2.552,5.699 5.708,5.699 3.152,0 5.699,-2.543 5.699,-5.699 C 5.699,2.548 3.152,0 0,0"
             id="path3197"
             style="fill:#80cc28;fill-opacity:1;fill-rule:nonzero;stroke:none" />
        </g>
        <g
           transform="translate(441.0957,254.6494)"
           id="g3199">
          <path
             d="m 0,0 c -3.156,0 -5.708,2.552 -5.708,5.703 0,3.157 2.552,5.714 5.708,5.714 3.152,0 5.699,-2.557 5.699,-5.714 C 5.699,2.552 3.152,0 0,0"
             id="path3201"
             style="fill:#80cc28;fill-opacity:1;fill-rule:nonzero;stroke:none" />
        </g>
        <g
           transform="translate(441.0957,243.2412)"
           id="g3203">
          <path
             d="m 0,0 c -3.156,0 -5.708,2.553 -5.708,5.704 0,3.152 2.552,5.704 5.708,5.704 3.152,0 5.699,-2.552 5.699,-5.704 C 5.699,2.553 3.152,0 0,0"
             id="path3205"
             style="fill:#80cc28;fill-opacity:1;fill-rule:nonzero;stroke:none" />
        </g>
        <g
           transform="translate(441.0957,231.834)"
           id="g3207">
          <path
             d="m 0,0 c -3.156,0 -5.708,2.552 -5.708,5.704 0,3.151 2.552,5.703 5.708,5.703 3.152,0 5.699,-2.552 5.699,-5.703 C 5.699,2.552 3.152,0 0,0"
             id="path3209"
             style="fill:#80cc28;fill-opacity:1;fill-rule:nonzero;stroke:none" />
        </g>
        <g
           transform="translate(441.0957,220.417)"
           id="g3211">
          <path
             d="m 0,0 c -3.156,0 -5.708,2.562 -5.708,5.713 0,3.147 2.552,5.704 5.708,5.704 3.152,0 5.699,-2.557 5.699,-5.704 C 5.699,2.562 3.152,0 0,0"
             id="path3213"
             style="fill:#80cc28;fill-opacity:1;fill-rule:nonzero;stroke:none" />
        </g>
        <g
           transform="translate(441.0957,209.0186)"
           id="g3215">
          <path
             d="m 0,0 c -3.156,0 -5.708,2.553 -5.708,5.694 0,3.158 2.552,5.704 5.708,5.704 3.152,0 5.699,-2.546 5.699,-5.704 C 5.699,2.553 3.152,0 0,0"
             id="path3217"
             style="fill:#80cc28;fill-opacity:1;fill-rule:nonzero;stroke:none" />
        </g>
        <g
           transform="translate(441.0957,197.6016)"
           id="g3219">
          <path
             d="m 0,0 c -3.156,0 -5.708,2.552 -5.708,5.704 0,3.156 2.552,5.713 5.708,5.713 3.152,0 5.699,-2.557 5.699,-5.713 C 5.699,2.552 3.152,0 0,0"
             id="path3221"
             style="fill:#80cc28;fill-opacity:1;fill-rule:nonzero;stroke:none" />
        </g>
        <g
           transform="translate(429.686,357.3418)"
           id="g3223">
          <path
             d="m 0,0 c -3.152,0 -5.704,2.552 -5.704,5.699 0,3.152 2.552,5.704 5.704,5.704 3.152,0 5.702,-2.552 5.702,-5.704 C 5.702,2.552 3.152,0 0,0"
             id="path3225"
             style="fill:#80cc28;fill-opacity:1;fill-rule:nonzero;stroke:none" />
        </g>
        <g
           transform="translate(429.686,345.9297)"
           id="g3227">
          <path
             d="m 0,0 c -3.152,0 -5.704,2.552 -5.704,5.708 0,3.152 2.552,5.704 5.704,5.704 3.152,0 5.702,-2.552 5.702,-5.704 C 5.702,2.552 3.152,0 0,0"
             id="path3229"
             style="fill:#80cc28;fill-opacity:1;fill-rule:nonzero;stroke:none" />
        </g>
        <g
           transform="translate(429.686,334.5171)"
           id="g3231">
          <path
             d="m 0,0 c -3.152,0 -5.704,2.552 -5.704,5.708 0,3.147 2.552,5.705 5.704,5.705 3.152,0 5.702,-2.558 5.702,-5.705 C 5.702,2.552 3.152,0 0,0"
             id="path3233"
             style="fill:#80cc28;fill-opacity:1;fill-rule:nonzero;stroke:none" />
        </g>
        <g
           transform="translate(429.686,323.1143)"
           id="g3235">
          <path
             d="m 0,0 c -3.152,0 -5.704,2.547 -5.704,5.694 0,3.157 2.552,5.709 5.704,5.709 3.152,0 5.702,-2.552 5.702,-5.709 C 5.702,2.547 3.152,0 0,0"
             id="path3237"
             style="fill:#80cc28;fill-opacity:1;fill-rule:nonzero;stroke:none" />
        </g>
        <g
           transform="translate(429.686,311.7021)"
           id="g3239">
          <path
             d="m 0,0 c -3.152,0 -5.704,2.552 -5.704,5.704 0,3.151 2.552,5.708 5.704,5.708 3.152,0 5.702,-2.557 5.702,-5.708 C 5.702,2.552 3.152,0 0,0"
             id="path3241"
             style="fill:#80cc28;fill-opacity:1;fill-rule:nonzero;stroke:none" />
        </g>
        <g
           transform="translate(429.686,300.2891)"
           id="g3243">
          <path
             d="m 0,0 c -3.152,0 -5.704,2.558 -5.704,5.704 0,3.152 2.552,5.709 5.704,5.709 3.152,0 5.702,-2.557 5.702,-5.709 C 5.702,2.558 3.152,0 0,0"
             id="path3245"
             style="fill:#80cc28;fill-opacity:1;fill-rule:nonzero;stroke:none" />
        </g>
        <g
           transform="translate(429.686,288.8721)"
           id="g3247">
          <path
             d="m 0,0 c -3.152,0 -5.704,2.557 -5.704,5.714 0,3.151 2.552,5.703 5.704,5.703 3.152,0 5.702,-2.552 5.702,-5.703 C 5.702,2.557 3.152,0 0,0"
             id="path3249"
             style="fill:#80cc28;fill-opacity:1;fill-rule:nonzero;stroke:none" />
        </g>
        <g
           transform="translate(429.686,277.4697)"
           id="g3251">
          <path
             d="m 0,0 c -3.152,0 -5.704,2.552 -5.704,5.708 0,3.147 2.552,5.694 5.704,5.694 3.152,0 5.702,-2.547 5.702,-5.694 C 5.702,2.552 3.152,0 0,0"
             id="path3253"
             style="fill:#80cc28;fill-opacity:1;fill-rule:nonzero;stroke:none" />
        </g>
        <g
           transform="translate(429.686,266.0664)"
           id="g3255">
          <path
             d="m 0,0 c -3.152,0 -5.704,2.548 -5.704,5.704 0,3.156 2.552,5.699 5.704,5.699 3.152,0 5.702,-2.543 5.702,-5.699 C 5.702,2.548 3.152,0 0,0"
             id="path3257"
             style="fill:#80cc28;fill-opacity:1;fill-rule:nonzero;stroke:none" />
        </g>
        <g
           transform="translate(429.686,254.6494)"
           id="g3259">
          <path
             d="m 0,0 c -3.152,0 -5.704,2.552 -5.704,5.703 0,3.157 2.552,5.714 5.704,5.714 3.152,0 5.702,-2.557 5.702,-5.714 C 5.702,2.552 3.152,0 0,0"
             id="path3261"
             style="fill:#80cc28;fill-opacity:1;fill-rule:nonzero;stroke:none" />
        </g>
        <g
           transform="translate(429.686,243.2412)"
           id="g3263">
          <path
             d="m 0,0 c -3.152,0 -5.704,2.553 -5.704,5.704 0,3.152 2.552,5.704 5.704,5.704 3.152,0 5.702,-2.552 5.702,-5.704 C 5.702,2.553 3.152,0 0,0"
             id="path3265"
             style="fill:#80cc28;fill-opacity:1;fill-rule:nonzero;stroke:none" />
        </g>
        <g
           transform="translate(429.686,231.834)"
           id="g3267">
          <path
             d="m 0,0 c -3.152,0 -5.704,2.552 -5.704,5.704 0,3.151 2.552,5.703 5.704,5.703 3.152,0 5.702,-2.552 5.702,-5.703 C 5.702,2.552 3.152,0 0,0"
             id="path3269"
             style="fill:#80cc28;fill-opacity:1;fill-rule:nonzero;stroke:none" />
        </g>
        <g
           transform="translate(429.686,220.417)"
           id="g3271">
          <path
             d="m 0,0 c -3.152,0 -5.704,2.562 -5.704,5.713 0,3.147 2.552,5.704 5.704,5.704 3.152,0 5.702,-2.557 5.702,-5.704 C 5.702,2.562 3.152,0 0,0"
             id="path3273"
             style="fill:#80cc28;fill-opacity:1;fill-rule:nonzero;stroke:none" />
        </g>
        <g
           transform="translate(429.686,209.0186)"
           id="g3275">
          <path
             d="m 0,0 c -3.152,0 -5.704,2.553 -5.704,5.694 0,3.158 2.552,5.704 5.704,5.704 3.152,0 5.702,-2.546 5.702,-5.704 C 5.702,2.553 3.152,0 0,0"
             id="path3277"
             style="fill:#80cc28;fill-opacity:1;fill-rule:nonzero;stroke:none" />
        </g>
        <g
           transform="translate(429.686,197.6016)"
           id="g3279">
          <path
             d="m 0,0 c -3.152,0 -5.704,2.552 -5.704,5.704 0,3.156 2.552,5.713 5.704,5.713 3.152,0 5.702,-2.557 5.702,-5.713 C 5.702,2.552 3.152,0 0,0"
             id="path3281"
             style="fill:#80cc28;fill-opacity:1;fill-rule:nonzero;stroke:none" />
        </g>
        <g
           transform="translate(429.686,186.1943)"
           id="g3283">
          <path
             d="m 0,0 c -3.152,0 -5.704,2.552 -5.704,5.703 0,3.152 2.552,5.704 5.704,5.704 3.152,0 5.702,-2.552 5.702,-5.704 C 5.702,2.552 3.152,0 0,0"
             id="path3285"
             style="fill:#80cc28;fill-opacity:1;fill-rule:nonzero;stroke:none" />
        </g>
        <g
           transform="translate(418.2764,357.3418)"
           id="g3287">
          <path
             d="m 0,0 c -3.152,0 -5.711,2.552 -5.711,5.699 0,3.152 2.559,5.704 5.711,5.704 3.149,0 5.706,-2.552 5.706,-5.704 C 5.706,2.552 3.149,0 0,0"
             id="path3289"
             style="fill:#80cc28;fill-opacity:1;fill-rule:nonzero;stroke:none" />
        </g>
        <g
           transform="translate(418.2764,345.9297)"
           id="g3291">
          <path
             d="m 0,0 c -3.152,0 -5.711,2.552 -5.711,5.708 0,3.152 2.559,5.704 5.711,5.704 3.149,0 5.706,-2.552 5.706,-5.704 C 5.706,2.552 3.149,0 0,0"
             id="path3293"
             style="fill:#80cc28;fill-opacity:1;fill-rule:nonzero;stroke:none" />
        </g>
        <g
           transform="translate(418.2764,334.5171)"
           id="g3295">
          <path
             d="m 0,0 c -3.152,0 -5.711,2.552 -5.711,5.708 0,3.147 2.559,5.705 5.711,5.705 3.149,0 5.706,-2.558 5.706,-5.705 C 5.706,2.552 3.149,0 0,0"
             id="path3297"
             style="fill:#80cc28;fill-opacity:1;fill-rule:nonzero;stroke:none" />
        </g>
        <g
           transform="translate(418.2764,323.1143)"
           id="g3299">
          <path
             d="m 0,0 c -3.152,0 -5.711,2.547 -5.711,5.694 0,3.157 2.559,5.709 5.711,5.709 3.149,0 5.706,-2.552 5.706,-5.709 C 5.706,2.547 3.149,0 0,0"
             id="path3301"
             style="fill:#80cc28;fill-opacity:1;fill-rule:nonzero;stroke:none" />
        </g>
        <g
           transform="translate(418.2764,311.7021)"
           id="g3303">
          <path
             d="m 0,0 c -3.152,0 -5.711,2.552 -5.711,5.704 0,3.151 2.559,5.708 5.711,5.708 3.149,0 5.706,-2.557 5.706,-5.708 C 5.706,2.552 3.149,0 0,0"
             id="path3305"
             style="fill:#80cc28;fill-opacity:1;fill-rule:nonzero;stroke:none" />
        </g>
        <g
           transform="translate(418.2764,300.2891)"
           id="g3307">
          <path
             d="m 0,0 c -3.152,0 -5.711,2.558 -5.711,5.704 0,3.152 2.559,5.709 5.711,5.709 3.149,0 5.706,-2.557 5.706,-5.709 C 5.706,2.558 3.149,0 0,0"
             id="path3309"
             style="fill:#80cc28;fill-opacity:1;fill-rule:nonzero;stroke:none" />
        </g>
        <g
           transform="translate(418.2764,288.8721)"
           id="g3311">
          <path
             d="m 0,0 c -3.152,0 -5.711,2.557 -5.711,5.714 0,3.151 2.559,5.703 5.711,5.703 3.149,0 5.706,-2.552 5.706,-5.703 C 5.706,2.557 3.149,0 0,0"
             id="path3313"
             style="fill:#80cc28;fill-opacity:1;fill-rule:nonzero;stroke:none" />
        </g>
        <g
           transform="translate(418.2764,277.4697)"
           id="g3315">
          <path
             d="m 0,0 c -3.152,0 -5.711,2.552 -5.711,5.708 0,3.147 2.559,5.694 5.711,5.694 3.149,0 5.706,-2.547 5.706,-5.694 C 5.706,2.552 3.149,0 0,0"
             id="path3317"
             style="fill:#80cc28;fill-opacity:1;fill-rule:nonzero;stroke:none" />
        </g>
        <g
           transform="translate(418.2764,266.0664)"
           id="g3319">
          <path
             d="m 0,0 c -3.152,0 -5.711,2.548 -5.711,5.704 0,3.156 2.559,5.699 5.711,5.699 3.149,0 5.706,-2.543 5.706,-5.699 C 5.706,2.548 3.149,0 0,0"
             id="path3321"
             style="fill:#80cc28;fill-opacity:1;fill-rule:nonzero;stroke:none" />
        </g>
        <g
           transform="translate(418.2764,254.6494)"
           id="g3323">
          <path
             d="m 0,0 c -3.152,0 -5.711,2.552 -5.711,5.703 0,3.157 2.559,5.714 5.711,5.714 3.149,0 5.706,-2.557 5.706,-5.714 C 5.706,2.552 3.149,0 0,0"
             id="path3325"
             style="fill:#80cc28;fill-opacity:1;fill-rule:nonzero;stroke:none" />
        </g>
        <g
           transform="translate(418.2764,243.2412)"
           id="g3327">
          <path
             d="m 0,0 c -3.152,0 -5.711,2.553 -5.711,5.704 0,3.152 2.559,5.704 5.711,5.704 3.149,0 5.706,-2.552 5.706,-5.704 C 5.706,2.553 3.149,0 0,0"
             id="path3329"
             style="fill:#80cc28;fill-opacity:1;fill-rule:nonzero;stroke:none" />
        </g>
        <g
           transform="translate(418.2764,231.834)"
           id="g3331">
          <path
             d="m 0,0 c -3.152,0 -5.711,2.552 -5.711,5.704 0,3.151 2.559,5.703 5.711,5.703 3.149,0 5.706,-2.552 5.706,-5.703 C 5.706,2.552 3.149,0 0,0"
             id="path3333"
             style="fill:#80cc28;fill-opacity:1;fill-rule:nonzero;stroke:none" />
        </g>
        <g
           transform="translate(418.2764,220.417)"
           id="g3335">
          <path
             d="m 0,0 c -3.152,0 -5.711,2.562 -5.711,5.713 0,3.147 2.559,5.704 5.711,5.704 3.149,0 5.706,-2.557 5.706,-5.704 C 5.706,2.562 3.149,0 0,0"
             id="path3337"
             style="fill:#80cc28;fill-opacity:1;fill-rule:nonzero;stroke:none" />
        </g>
        <g
           transform="translate(418.2764,209.0186)"
           id="g3339">
          <path
             d="m 0,0 c -3.152,0 -5.711,2.553 -5.711,5.694 0,3.158 2.559,5.704 5.711,5.704 3.149,0 5.706,-2.546 5.706,-5.704 C 5.706,2.553 3.149,0 0,0"
             id="path3341"
             style="fill:#80cc28;fill-opacity:1;fill-rule:nonzero;stroke:none" />
        </g>
        <g
           transform="translate(418.2764,197.6016)"
           id="g3343">
          <path
             d="m 0,0 c -3.152,0 -5.711,2.552 -5.711,5.704 0,3.156 2.559,5.713 5.711,5.713 3.149,0 5.706,-2.557 5.706,-5.713 C 5.706,2.552 3.149,0 0,0"
             id="path3345"
             style="fill:#80cc28;fill-opacity:1;fill-rule:nonzero;stroke:none" />
        </g>
        <g
           transform="translate(406.8662,357.3418)"
           id="g3347">
          <path
             d="m 0,0 c -3.152,0 -5.704,2.552 -5.704,5.699 0,3.152 2.552,5.704 5.704,5.704 3.151,0 5.699,-2.552 5.699,-5.704 C 5.699,2.552 3.151,0 0,0"
             id="path3349"
             style="fill:#80cc28;fill-opacity:1;fill-rule:nonzero;stroke:none" />
        </g>
        <g
           transform="translate(406.8662,345.9297)"
           id="g3351">
          <path
             d="m 0,0 c -3.152,0 -5.704,2.552 -5.704,5.708 0,3.152 2.552,5.704 5.704,5.704 3.151,0 5.699,-2.552 5.699,-5.704 C 5.699,2.552 3.151,0 0,0"
             id="path3353"
             style="fill:#80cc28;fill-opacity:1;fill-rule:nonzero;stroke:none" />
        </g>
        <g
           transform="translate(406.8662,334.5171)"
           id="g3355">
          <path
             d="m 0,0 c -3.152,0 -5.704,2.552 -5.704,5.708 0,3.147 2.552,5.705 5.704,5.705 3.151,0 5.699,-2.558 5.699,-5.705 C 5.699,2.552 3.151,0 0,0"
             id="path3357"
             style="fill:#80cc28;fill-opacity:1;fill-rule:nonzero;stroke:none" />
        </g>
        <g
           transform="translate(406.8662,323.1143)"
           id="g3359">
          <path
             d="m 0,0 c -3.152,0 -5.704,2.547 -5.704,5.694 0,3.157 2.552,5.709 5.704,5.709 3.151,0 5.699,-2.552 5.699,-5.709 C 5.699,2.547 3.151,0 0,0"
             id="path3361"
             style="fill:#80cc28;fill-opacity:1;fill-rule:nonzero;stroke:none" />
        </g>
        <g
           transform="translate(406.8662,311.7021)"
           id="g3363">
          <path
             d="m 0,0 c -3.152,0 -5.704,2.552 -5.704,5.704 0,3.151 2.552,5.708 5.704,5.708 3.151,0 5.699,-2.557 5.699,-5.708 C 5.699,2.552 3.151,0 0,0"
             id="path3365"
             style="fill:#80cc28;fill-opacity:1;fill-rule:nonzero;stroke:none" />
        </g>
        <g
           transform="translate(406.8662,300.2891)"
           id="g3367">
          <path
             d="m 0,0 c -3.152,0 -5.704,2.558 -5.704,5.704 0,3.152 2.552,5.709 5.704,5.709 3.151,0 5.699,-2.557 5.699,-5.709 C 5.699,2.558 3.151,0 0,0"
             id="path3369"
             style="fill:#80cc28;fill-opacity:1;fill-rule:nonzero;stroke:none" />
        </g>
        <g
           transform="translate(406.8662,288.8721)"
           id="g3371">
          <path
             d="m 0,0 c -3.152,0 -5.704,2.557 -5.704,5.714 0,3.151 2.552,5.703 5.704,5.703 3.151,0 5.699,-2.552 5.699,-5.703 C 5.699,2.557 3.151,0 0,0"
             id="path3373"
             style="fill:#80cc28;fill-opacity:1;fill-rule:nonzero;stroke:none" />
        </g>
        <g
           transform="translate(406.8662,277.4697)"
           id="g3375">
          <path
             d="m 0,0 c -3.152,0 -5.704,2.552 -5.704,5.708 0,3.147 2.552,5.694 5.704,5.694 3.151,0 5.699,-2.547 5.699,-5.694 C 5.699,2.552 3.151,0 0,0"
             id="path3377"
             style="fill:#80cc28;fill-opacity:1;fill-rule:nonzero;stroke:none" />
        </g>
        <g
           transform="translate(406.8662,266.0664)"
           id="g3379">
          <path
             d="m 0,0 c -3.152,0 -5.704,2.548 -5.704,5.704 0,3.156 2.552,5.699 5.704,5.699 3.151,0 5.699,-2.543 5.699,-5.699 C 5.699,2.548 3.151,0 0,0"
             id="path3381"
             style="fill:#80cc28;fill-opacity:1;fill-rule:nonzero;stroke:none" />
        </g>
        <g
           transform="translate(406.8662,254.6494)"
           id="g3383">
          <path
             d="m 0,0 c -3.152,0 -5.704,2.552 -5.704,5.703 0,3.157 2.552,5.714 5.704,5.714 3.151,0 5.699,-2.557 5.699,-5.714 C 5.699,2.552 3.151,0 0,0"
             id="path3385"
             style="fill:#80cc28;fill-opacity:1;fill-rule:nonzero;stroke:none" />
        </g>
        <g
           transform="translate(406.8662,243.2412)"
           id="g3387">
          <path
             d="m 0,0 c -3.152,0 -5.704,2.553 -5.704,5.704 0,3.152 2.552,5.704 5.704,5.704 3.151,0 5.699,-2.552 5.699,-5.704 C 5.699,2.553 3.151,0 0,0"
             id="path3389"
             style="fill:#80cc28;fill-opacity:1;fill-rule:nonzero;stroke:none" />
        </g>
        <g
           transform="translate(406.8662,231.834)"
           id="g3391">
          <path
             d="m 0,0 c -3.152,0 -5.704,2.552 -5.704,5.704 0,3.151 2.552,5.703 5.704,5.703 3.151,0 5.699,-2.552 5.699,-5.703 C 5.699,2.552 3.151,0 0,0"
             id="path3393"
             style="fill:#80cc28;fill-opacity:1;fill-rule:nonzero;stroke:none" />
        </g>
        <g
           transform="translate(406.8662,220.417)"
           id="g3395">
          <path
             d="m 0,0 c -3.152,0 -5.704,2.562 -5.704,5.713 0,3.147 2.552,5.704 5.704,5.704 3.151,0 5.699,-2.557 5.699,-5.704 C 5.699,2.562 3.151,0 0,0"
             id="path3397"
             style="fill:#80cc28;fill-opacity:1;fill-rule:nonzero;stroke:none" />
        </g>
        <g
           transform="translate(406.8662,209.0186)"
           id="g3399">
          <path
             d="m 0,0 c -3.152,0 -5.704,2.553 -5.704,5.694 0,3.158 2.552,5.704 5.704,5.704 3.151,0 5.699,-2.546 5.699,-5.704 C 5.699,2.553 3.151,0 0,0"
             id="path3401"
             style="fill:#80cc28;fill-opacity:1;fill-rule:nonzero;stroke:none" />
        </g>
        <g
           transform="translate(395.4536,357.3418)"
           id="g3403">
          <path
             d="m 0,0 c -3.157,0 -5.702,2.552 -5.702,5.699 0,3.152 2.545,5.704 5.702,5.704 3.149,0 5.708,-2.552 5.708,-5.704 C 5.708,2.552 3.149,0 0,0"
             id="path3405"
             style="fill:#80cc28;fill-opacity:1;fill-rule:nonzero;stroke:none" />
        </g>
        <g
           transform="translate(395.4536,345.9297)"
           id="g3407">
          <path
             d="m 0,0 c -3.157,0 -5.702,2.552 -5.702,5.708 0,3.152 2.545,5.704 5.702,5.704 3.149,0 5.708,-2.552 5.708,-5.704 C 5.708,2.552 3.149,0 0,0"
             id="path3409"
             style="fill:#80cc28;fill-opacity:1;fill-rule:nonzero;stroke:none" />
        </g>
        <g
           transform="translate(395.4536,334.5171)"
           id="g3411">
          <path
             d="m 0,0 c -3.157,0 -5.702,2.552 -5.702,5.708 0,3.147 2.545,5.705 5.702,5.705 3.149,0 5.708,-2.558 5.708,-5.705 C 5.708,2.552 3.149,0 0,0"
             id="path3413"
             style="fill:#80cc28;fill-opacity:1;fill-rule:nonzero;stroke:none" />
        </g>
        <g
           transform="translate(395.4536,323.1143)"
           id="g3415">
          <path
             d="m 0,0 c -3.157,0 -5.702,2.547 -5.702,5.694 0,3.157 2.545,5.709 5.702,5.709 3.149,0 5.708,-2.552 5.708,-5.709 C 5.708,2.547 3.149,0 0,0"
             id="path3417"
             style="fill:#80cc28;fill-opacity:1;fill-rule:nonzero;stroke:none" />
        </g>
        <g
           transform="translate(395.4536,311.7021)"
           id="g3419">
          <path
             d="m 0,0 c -3.157,0 -5.702,2.552 -5.702,5.704 0,3.151 2.545,5.708 5.702,5.708 3.149,0 5.708,-2.557 5.708,-5.708 C 5.708,2.552 3.149,0 0,0"
             id="path3421"
             style="fill:#80cc28;fill-opacity:1;fill-rule:nonzero;stroke:none" />
        </g>
        <g
           transform="translate(395.4536,300.2891)"
           id="g3423">
          <path
             d="m 0,0 c -3.157,0 -5.702,2.558 -5.702,5.704 0,3.152 2.545,5.709 5.702,5.709 3.149,0 5.708,-2.557 5.708,-5.709 C 5.708,2.558 3.149,0 0,0"
             id="path3425"
             style="fill:#80cc28;fill-opacity:1;fill-rule:nonzero;stroke:none" />
        </g>
        <g
           transform="translate(395.4536,288.8721)"
           id="g3427">
          <path
             d="m 0,0 c -3.157,0 -5.702,2.557 -5.702,5.714 0,3.151 2.545,5.703 5.702,5.703 3.149,0 5.708,-2.552 5.708,-5.703 C 5.708,2.557 3.149,0 0,0"
             id="path3429"
             style="fill:#80cc28;fill-opacity:1;fill-rule:nonzero;stroke:none" />
        </g>
        <g
           transform="translate(395.4536,277.4697)"
           id="g3431">
          <path
             d="m 0,0 c -3.157,0 -5.702,2.552 -5.702,5.708 0,3.147 2.545,5.694 5.702,5.694 3.149,0 5.708,-2.547 5.708,-5.694 C 5.708,2.552 3.149,0 0,0"
             id="path3433"
             style="fill:#80cc28;fill-opacity:1;fill-rule:nonzero;stroke:none" />
        </g>
        <g
           transform="translate(395.4536,266.0664)"
           id="g3435">
          <path
             d="m 0,0 c -3.157,0 -5.702,2.548 -5.702,5.704 0,3.156 2.545,5.699 5.702,5.699 3.149,0 5.708,-2.543 5.708,-5.699 C 5.708,2.548 3.149,0 0,0"
             id="path3437"
             style="fill:#80cc28;fill-opacity:1;fill-rule:nonzero;stroke:none" />
        </g>
        <g
           transform="translate(395.4536,254.6494)"
           id="g3439">
          <path
             d="m 0,0 c -3.157,0 -5.702,2.552 -5.702,5.703 0,3.157 2.545,5.714 5.702,5.714 3.149,0 5.708,-2.557 5.708,-5.714 C 5.708,2.552 3.149,0 0,0"
             id="path3441"
             style="fill:#80cc28;fill-opacity:1;fill-rule:nonzero;stroke:none" />
        </g>
        <g
           transform="translate(395.4536,243.2412)"
           id="g3443">
          <path
             d="m 0,0 c -3.157,0 -5.702,2.553 -5.702,5.704 0,3.152 2.545,5.704 5.702,5.704 3.149,0 5.708,-2.552 5.708,-5.704 C 5.708,2.553 3.149,0 0,0"
             id="path3445"
             style="fill:#80cc28;fill-opacity:1;fill-rule:nonzero;stroke:none" />
        </g>
        <g
           transform="translate(395.4536,231.834)"
           id="g3447">
          <path
             d="m 0,0 c -3.157,0 -5.702,2.552 -5.702,5.704 0,3.151 2.545,5.703 5.702,5.703 3.149,0 5.708,-2.552 5.708,-5.703 C 5.708,2.552 3.149,0 0,0"
             id="path3449"
             style="fill:#80cc28;fill-opacity:1;fill-rule:nonzero;stroke:none" />
        </g>
        <g
           transform="translate(395.4536,220.417)"
           id="g3451">
          <path
             d="m 0,0 c -3.157,0 -5.702,2.562 -5.702,5.713 0,3.147 2.545,5.704 5.702,5.704 3.149,0 5.708,-2.557 5.708,-5.704 C 5.708,2.562 3.149,0 0,0"
             id="path3453"
             style="fill:#80cc28;fill-opacity:1;fill-rule:nonzero;stroke:none" />
        </g>
        <g
           transform="translate(384.0459,266.0664)"
           id="g3455">
          <path
             d="m 0,0 c -3.149,0 -5.708,2.548 -5.708,5.704 0,3.156 2.559,5.699 5.708,5.699 3.152,0 5.706,-2.543 5.706,-5.699 C 5.706,2.548 3.152,0 0,0"
             id="path3457"
             style="fill:#80cc28;fill-opacity:1;fill-rule:nonzero;stroke:none" />
        </g>
        <g
           transform="translate(384.0459,254.6494)"
           id="g3459">
          <path
             d="m 0,0 c -3.149,0 -5.708,2.552 -5.708,5.703 0,3.157 2.559,5.714 5.708,5.714 3.152,0 5.706,-2.557 5.706,-5.714 C 5.706,2.552 3.152,0 0,0"
             id="path3461"
             style="fill:#80cc28;fill-opacity:1;fill-rule:nonzero;stroke:none" />
        </g>
        <g
           transform="translate(384.0459,243.2412)"
           id="g3463">
          <path
             d="m 0,0 c -3.149,0 -5.708,2.553 -5.708,5.704 0,3.152 2.559,5.704 5.708,5.704 3.152,0 5.706,-2.552 5.706,-5.704 C 5.706,2.553 3.152,0 0,0"
             id="path3465"
             style="fill:#80cc28;fill-opacity:1;fill-rule:nonzero;stroke:none" />
        </g>
        <g
           transform="translate(384.0459,231.834)"
           id="g3467">
          <path
             d="m 0,0 c -3.149,0 -5.708,2.552 -5.708,5.704 0,3.151 2.559,5.703 5.708,5.703 3.152,0 5.706,-2.552 5.706,-5.703 C 5.706,2.552 3.152,0 0,0"
             id="path3469"
             style="fill:#80cc28;fill-opacity:1;fill-rule:nonzero;stroke:none" />
        </g>
        <g
           transform="translate(372.6387,266.0664)"
           id="g3471">
          <path
             d="m 0,0 c -3.154,0 -5.704,2.548 -5.704,5.704 0,3.156 2.55,5.699 5.704,5.699 3.149,0 5.699,-2.543 5.699,-5.699 C 5.699,2.548 3.149,0 0,0"
             id="path3473"
             style="fill:#80cc28;fill-opacity:1;fill-rule:nonzero;stroke:none" />
        </g>
        <g
           transform="translate(372.6387,254.6494)"
           id="g3475">
          <path
             d="m 0,0 c -3.154,0 -5.704,2.552 -5.704,5.703 0,3.157 2.55,5.714 5.704,5.714 3.149,0 5.699,-2.557 5.699,-5.714 C 5.699,2.552 3.149,0 0,0"
             id="path3477"
             style="fill:#80cc28;fill-opacity:1;fill-rule:nonzero;stroke:none" />
        </g>
        <g
           transform="translate(372.6387,243.2412)"
           id="g3479">
          <path
             d="m 0,0 c -3.154,0 -5.704,2.553 -5.704,5.704 0,3.152 2.55,5.704 5.704,5.704 3.149,0 5.699,-2.552 5.699,-5.704 C 5.699,2.553 3.149,0 0,0"
             id="path3481"
             style="fill:#80cc28;fill-opacity:1;fill-rule:nonzero;stroke:none" />
        </g>
        <g
           transform="translate(361.2207,266.0664)"
           id="g3483">
          <path
             d="m 0,0 c -3.142,0 -5.698,2.548 -5.698,5.704 0,3.156 2.556,5.699 5.698,5.699 3.154,0 5.714,-2.543 5.714,-5.699 C 5.714,2.548 3.154,0 0,0"
             id="path3485"
             style="fill:#80cc28;fill-opacity:1;fill-rule:nonzero;stroke:none" />
        </g>
        <g
           transform="translate(361.2207,254.6494)"
           id="g3487">
          <path
             d="m 0,0 c -3.142,0 -5.698,2.552 -5.698,5.703 0,3.157 2.556,5.714 5.698,5.714 3.154,0 5.714,-2.557 5.714,-5.714 C 5.714,2.552 3.154,0 0,0"
             id="path3489"
             style="fill:#80cc28;fill-opacity:1;fill-rule:nonzero;stroke:none" />
        </g>
        <g
           transform="translate(349.8184,266.0664)"
           id="g3491">
          <path
             d="m 0,0 c -3.159,0 -5.708,2.548 -5.708,5.704 0,3.156 2.549,5.699 5.708,5.699 3.145,0 5.704,-2.543 5.704,-5.699 C 5.704,2.548 3.145,0 0,0"
             id="path3493"
             style="fill:#80cc28;fill-opacity:1;fill-rule:nonzero;stroke:none" />
        </g>
      </g>
    </g>
    <g
       id="text3495"
       style="font-size:15px">
      <path
         d="m -157.21724,496.17843 c 0.0936,-4.32207 -0.92288,-8.27637 -3.04932,-11.86292 -2.12655,-3.58647 -5.92482,-6.87207 -11.39482,-9.85678 l -13.69518,-7.38256 c -2.82645,-1.48226 -4.74341,-2.74389 -5.75091,-3.7849 -1.00755,-1.04091 -1.4801,-2.27579 -1.41766,-3.70466 -0.0335,-1.92136 0.59513,-3.34794 1.88576,-4.27974 1.29059,-0.93168 3.44383,-1.39531 6.45974,-1.39092 3.9409,0.0357 8.2563,0.20514 12.94623,0.50822 4.68983,0.30321 7.9353,0.52612 9.73642,0.66871 0.12477,6e-5 0.1961,6e-5 0.21398,0 0.68426,-0.0155 1.16127,-0.19832 1.43104,-0.54834 0.26966,-0.3499 0.39894,-0.77341 0.38786,-1.27055 l 0,-10.80636 c -0.0134,-0.5817 -0.17392,-1.02305 -0.48148,-1.32404 -0.30766,-0.30085 -0.68214,-0.50146 -1.12343,-0.60184 -2.23577,-0.5661 -5.54811,-1.09215 -9.93703,-1.57816 -4.38901,-0.48585 -8.63755,-0.74442 -12.74562,-0.7757 -10.22237,0.13382 -17.38202,2.13995 -21.47897,6.01839 -4.09697,3.87859 -6.06743,8.82704 -5.9114,14.84537 -0.0958,3.90086 0.76456,7.54755 2.58123,10.94009 1.81665,3.39264 5.16466,6.55786 10.04402,9.49569 l 14.76512,8.77348 c 2.7283,1.59601 4.60069,2.97801 5.61717,4.146 1.0164,1.16804 1.49787,2.49654 1.44441,3.98551 0.0646,2.55895 -0.59965,4.44917 -1.99275,5.67066 -1.39319,1.22153 -3.90308,1.82782 -7.52968,1.81889 -2.39847,-0.0267 -5.75985,-0.18722 -10.08415,-0.48147 -4.32434,-0.29422 -7.73922,-0.5617 -10.24464,-0.80245 -0.107,2e-5 -0.214,2e-5 -0.32098,0 -0.54835,-0.009 -1.00308,0.14268 -1.36417,0.45472 -0.36111,0.31208 -0.54835,0.83813 -0.56172,1.57816 l 0,10.48538 c 0.0223,0.584 0.24519,1.04764 0.66871,1.39091 0.42351,0.34328 0.9139,0.59293 1.47117,0.74896 2.70157,0.7066 5.69739,1.27278 8.98746,1.69852 3.29003,0.42575 7.03481,0.64419 11.23433,0.65534 10.71939,-0.26749 18.30255,-2.75509 22.74952,-7.46281 4.44686,-4.70771 6.60011,-10.03063 6.45974,-15.9688 z"
         id="path4007"
         style="font-size:106.99500275px;font-variant:normal;font-weight:bold;font-stretch:normal;writing-mode:lr-tb;fill:#80cc28;fill-opacity:1;fill-rule:nonzero;stroke:none;font-family:NeoSans;-inkscape-font-specification:NeoSans-Bold" />
      <path
         d="m -96.658042,515.97225 0,-9.9504 c -0.01566,-0.60406 -0.225189,-1.10782 -0.628587,-1.51129 -0.40351,-0.40344 -0.907271,-0.61297 -1.511286,-0.62859 l -21.719705,0 c -2.48541,0.0446 -4.25526,-0.47254 -5.30956,-1.5514 -1.05436,-1.07884 -1.56704,-2.98689 -1.53803,-5.72416 l 0,-11.34133 27.711346,0 c 0.604014,-0.0156 1.107775,-0.2251 1.511284,-0.62858 0.403401,-0.40342 0.61293,-0.90718 0.628589,-1.51129 l 0,-10.16439 c -0.01566,-0.60403 -0.225188,-1.10779 -0.628587,-1.51129 -0.403509,-0.40341 -0.90727,-0.61293 -1.511286,-0.62859 l -27.711346,0 0,-9.73642 c -0.029,-2.73719 0.48367,-4.64524 1.53803,-5.72416 1.0543,-1.07878 2.82415,-1.59592 5.30956,-1.5514 l 21.719705,0 c 0.604013,-0.0155 1.107774,-0.22507 1.511284,-0.62859 0.4034,-0.40339 0.612929,-0.90715 0.628589,-1.51128 l 0,-9.95041 c 0.0044,-0.68424 -0.165005,-1.188 -0.50822,-1.51129 -0.343326,-0.32313 -0.88721,-0.53266 -1.631653,-0.62858 -1.776595,-0.29193 -4.241905,-0.59062 -7.395935,-0.89608 -3.15413,-0.3053 -7.57207,-0.47024 -13.25383,-0.49484 -7.12625,-0.26295 -13.20259,1.11905 -18.22905,4.146 -5.02648,3.0271 -7.65228,9.27731 -7.8774,18.75063 l 0,35.52189 c 0.22067,9.47786 2.82864,15.7459 7.82391,18.80413 4.99525,3.05823 11.05375,4.45806 18.17554,4.1995 5.68623,-0.0245 10.122,-0.18947 13.30733,-0.49485 3.18524,-0.30538 5.66838,-0.60407 7.449435,-0.89607 0.744441,-0.10031 1.288324,-0.32767 1.631651,-0.68209 0.343216,-0.35441 0.512623,-0.876 0.508222,-1.56478 z"
         id="path4009"
         style="font-size:106.99500275px;font-variant:normal;font-weight:bold;font-stretch:normal;writing-mode:lr-tb;fill:#80cc28;fill-opacity:1;fill-rule:nonzero;stroke:none;font-family:NeoSans;-inkscape-font-specification:NeoSans-Bold" />
      <path
         d="m -28.609301,453.59497 0,-11.34132 c -0.009,-0.47471 -0.178384,-0.83581 -0.50822,-1.08331 -0.329958,-0.24735 -0.766849,-0.42121 -1.310672,-0.5216 -1.995042,-0.47693 -4.879409,-0.99407 -8.65311,-1.55141 -3.773803,-0.55718 -8.343318,-0.86033 -13.708557,-0.90944 -5.285651,-0.0838 -10.394922,0.8448 -15.327829,2.78579 -4.932952,1.94115 -9.003989,5.39797 -12.213124,10.37046 -3.209156,4.97262 -4.870857,11.96419 -4.985109,20.97472 l 0,13.2672 c 0.150577,8.94192 1.882287,15.89254 5.195133,20.85187 3.312825,4.95936 7.303286,8.41485 11.971397,10.36649 4.668065,1.95165 9.110278,2.88685 13.326653,2.80562 5.318433,-0.0201 9.928071,-0.24743 13.828926,-0.68209 3.900756,-0.43466 7.279968,-0.95625 10.137646,-1.56478 0.791245,-0.14935 1.348502,-0.41237 1.671773,-0.78908 0.323148,-0.3767 0.479181,-0.93396 0.468099,-1.67177 l 0,-35.94986 c -0.01567,-0.60403 -0.225194,-1.10779 -0.628586,-1.51129 -0.403516,-0.40341 -0.907277,-0.61294 -1.511286,-0.62858 l -13.695184,0 c -0.599657,0.0156 -1.085587,0.22517 -1.457791,0.62859 -0.372293,0.40349 -0.563989,0.90725 -0.575088,1.51128 l 0,24.60853 c -1.279506,0.10701 -2.599093,0.18726 -3.958764,0.24074 -1.359751,0.0535 -2.786332,0.0803 -4.279745,0.0802 -2.793013,0.16497 -5.445561,-1.02088 -7.957653,-3.55754 -2.512148,-2.53661 -3.854024,-7.41374 -4.025633,-14.63137 l 0,-13.3742 c 0.04233,-6.8899 1.295044,-11.6734 3.758152,-14.35053 2.463052,-2.677 5.882386,-3.95647 10.258013,-3.83839 4.58508,0.0224 8.789033,0.13826 12.611872,0.34773 3.822739,0.20959 7.037003,0.379 9.642802,0.50822 0.106933,6e-5 0.213927,6e-5 0.320981,0 0.488097,0.0157 0.875948,-0.069 1.163554,-0.25411 0.287484,-0.18495 0.4346,-0.56388 0.44135,-1.13681 z"
         id="path4011"
         style="font-size:106.99500275px;font-variant:normal;font-weight:bold;font-stretch:normal;writing-mode:lr-tb;fill:#80cc28;fill-opacity:1;fill-rule:nonzero;stroke:none;font-family:NeoSans;-inkscape-font-specification:NeoSans-Bold" />
      <path
         d="m 47.892031,516.9352 c -0.0045,-0.0557 -0.02236,-0.13152 -0.0535,-0.22737 -0.03128,-0.0958 -0.04911,-0.19838 -0.05349,-0.3076 l -15.94205,-66.33605 c -1.350849,-4.9885 -3.677959,-8.25181 -6.981337,-9.78992 -3.303472,-1.53795 -6.861005,-2.23341 -10.672611,-2.08637 -3.81614,-0.14704 -7.3915077,0.54842 -10.7261128,2.08637 -3.3346554,1.53811 -5.6795961,4.80141 -7.0348293,9.78992 l -15.9420499,66.33605 c -0.0045,0.10922 -0.02229,0.21176 -0.0535,0.30761 -0.03121,0.0958 -0.04904,0.17163 -0.0535,0.22736 0.0089,0.53942 0.178323,0.95848 0.508221,1.25717 0.329894,0.29869 0.766784,0.45027 1.310671,0.45472 l 14.9791073,0 c 0.5438643,-0.0134 1.0075029,-0.20061 1.3909171,-0.56171 0.3833738,-0.36111 0.6330253,-0.81583 0.74895538,-1.36417 l 3.85177052,-17.54696 21.9336927,0 3.851771,17.54696 c 0.115858,0.54834 0.36551,1.00306 0.748955,1.36417 0.383343,0.3611 0.846982,0.54834 1.390917,0.56171 l 14.979108,0 c 0.543815,-0.004 0.980705,-0.15603 1.31067,-0.45472 0.329827,-0.29869 0.499234,-0.71775 0.508222,-1.25717 z m -25.785464,-32.41907 -15.9420502,0 6.5266112,-29.53024 c 0.09581,-0.53491 0.251846,-0.93614 0.468096,-1.20368 0.216181,-0.26742 0.559453,-0.40116 1.029815,-0.40123 0.46583,7e-5 0.791269,0.13381 0.976316,0.40123 0.184973,0.26755 0.323173,0.66877 0.414601,1.20368 z"
         id="path4013"
         style="font-size:106.99500275px;font-variant:normal;font-weight:bold;font-stretch:normal;writing-mode:lr-tb;fill:#80cc28;fill-opacity:1;fill-rule:nonzero;stroke:none;font-family:NeoSans;-inkscape-font-specification:NeoSans-Bold" />
      <path
         d="m -202.58324,857.17969 0,-13.80218 c -0.0915,-11.28554 -3.11849,-19.74248 -9.08109,-25.37086 -5.96272,-5.62823 -14.31267,-8.44127 -25.04988,-8.43912 -4.56064,0.0201 -8.92062,0.194 -13.07997,0.52159 -4.1594,0.32775 -7.39595,0.68885 -9.70967,1.08331 -1.01868,0.14274 -1.78993,0.49938 -2.31374,1.06994 -0.52383,0.57071 -0.78686,1.46232 -0.78908,2.67484 l 0,70.72278 c 0.002,1.2126 0.26525,2.10422 0.78908,2.67485 0.52381,0.57063 1.29506,0.92727 2.31374,1.06993 2.31372,0.39454 5.55028,0.75564 9.70967,1.08331 4.15935,0.32767 8.51934,0.50153 13.07997,0.5216 10.73721,0.002 19.08716,-2.81081 25.04988,-8.43913 5.9626,-5.62829 8.98963,-14.08524 9.08109,-25.37086 z m -18.29591,0 c -0.058,7.08167 -1.49351,11.9365 -4.3065,14.56451 -2.81308,2.62804 -6.65593,3.87184 -11.52856,3.7314 -1.39318,-0.002 -2.80639,-0.0245 -4.23962,-0.0669 -1.4333,-0.0423 -2.55227,-0.0914 -3.35693,-0.14712 l 0,-49.96602 c 0.80465,-0.0557 1.92363,-0.1047 3.35693,-0.14712 1.43324,-0.0423 2.84644,-0.0646 4.23962,-0.0669 4.87263,-0.14036 8.71548,1.10344 11.52856,3.73141 2.81299,2.62809 4.24849,7.48292 4.3065,14.5645 z"
         id="path4015"
         style="font-size:106.99500275px;font-variant:normal;font-weight:bold;font-stretch:normal;writing-mode:lr-tb;fill:#ffffff;fill-opacity:1;fill-rule:nonzero;stroke:none;font-family:NeoSans;-inkscape-font-specification:NeoSans-Bold" />
      <path
         d="m -103.82718,811.92139 c -0.0179,-0.52598 -0.19625,-0.89154 -0.53497,-1.09669 -0.33891,-0.20499 -0.73122,-0.30307 -1.17693,-0.29423 l -14.55114,0 c -0.43919,0.0112 -0.81813,0.20292 -1.1368,0.57509 -0.31883,0.37233 -0.51053,0.85826 -0.57509,1.45779 l -6.09864,57.34858 c -0.0469,0.47926 -0.11375,0.83145 -0.20061,1.05656 -0.087,0.22515 -0.23412,0.33661 -0.44135,0.33436 -0.30322,0.0178 -0.55287,-0.44579 -0.74896,-1.39092 l -7.70354,-29.42325 c -0.564,-1.9927 -1.44224,-3.35687 -2.63472,-4.0925 -1.19259,-0.73553 -2.52555,-1.08326 -3.99888,-1.04319 l -10.59237,0 c -1.47344,-0.0401 -2.8064,0.30766 -3.99889,1.04319 -1.19257,0.73564 -2.07081,2.0998 -2.63472,4.0925 l -7.70354,29.42325 c -0.19618,0.94513 -0.44583,1.40877 -0.74895,1.39092 -0.20733,0.002 -0.35445,-0.10921 -0.44135,-0.33436 -0.087,-0.22511 -0.15383,-0.5773 -0.20061,-1.05656 l -6.09864,-57.34858 c -0.0647,-0.59953 -0.25636,-1.08546 -0.57509,-1.45779 -0.31878,-0.37217 -0.69771,-0.56387 -1.13681,-0.57509 l -14.55113,0 c -0.44581,-0.009 -0.83812,0.0892 -1.17693,0.29423 -0.33882,0.20515 -0.51714,0.57072 -0.53497,1.09669 0,0.0179 0,0.0892 0,0.21398 l 9.95041,70.08083 c 0.43019,3.05378 1.46892,5.18473 3.11619,6.39287 1.64723,1.20813 3.88964,1.78768 6.72722,1.73864 l 6.09864,0 c 2.3828,0.0379 4.43797,-0.49261 6.1655,-1.59153 1.72747,-1.09891 2.95344,-2.99358 3.67791,-5.68403 l 8.4525,-31.9911 c 0.0958,-0.4101 0.19833,-0.65975 0.3076,-0.74895 0.10918,-0.0891 0.29196,-0.12479 0.54835,-0.107 0.26074,-0.0178 0.46135,0.0179 0.60183,0.107 0.14038,0.0892 0.26075,0.33885 0.36111,0.74895 l 8.45249,31.9911 c 0.72438,2.69045 1.95035,4.58512 3.67791,5.68403 1.72744,1.09892 3.7826,1.62943 6.16551,1.59153 l 6.09863,0 c 2.83749,0.049 5.07989,-0.53051 6.72723,-1.73864 1.64717,-1.20814 2.6859,-3.33909 3.11619,-6.39287 l 9.95041,-70.08083 c -1e-4,-0.12474 -1e-4,-0.19607 0,-0.21398 z"
         id="path4017"
         style="font-size:106.99500275px;font-variant:normal;font-weight:bold;font-stretch:normal;writing-mode:lr-tb;fill:#ffffff;fill-opacity:1;fill-rule:nonzero;stroke:none;font-family:NeoSans;-inkscape-font-specification:NeoSans-Bold" />
      <path
         d="m -31.498258,885.96098 0,-73.39763 c -0.01567,-0.59953 -0.225203,-1.08546 -0.628587,-1.45779 -0.403524,-0.37217 -0.907285,-0.56387 -1.511286,-0.57509 l -12.625247,0 c -0.604125,0.0112 -1.107886,0.20292 -1.511286,0.57509 -0.403508,0.37233 -0.613037,0.85826 -0.628587,1.45779 l 0,45.2583 c -0.009,0.36783 -0.07138,0.62193 -0.187239,0.76233 -0.115963,0.14046 -0.231873,0.20733 -0.347729,0.20061 -0.149399,0.004 -0.278684,-0.0579 -0.387854,-0.18723 -0.109277,-0.12926 -0.265308,-0.35216 -0.468095,-0.66871 l -25.357489,-44.08138 c -0.615239,-1.12112 -1.2572,-1.95478 -1.925886,-2.50098 -0.668734,-0.54603 -1.524683,-0.81797 -2.567847,-0.81582 l -10.806356,0 c -1.152421,0.0291 -2.110905,0.42582 -2.875454,1.1903 -0.764567,0.76464 -1.161334,1.72313 -1.190303,2.87546 l 0,73.29063 c 0.0156,0.60407 0.225125,1.10783 0.628588,1.51129 0.403447,0.40345 0.907208,0.61298 1.511284,0.62858 l 12.625248,0 c 0.604044,-0.0156 1.107805,-0.22513 1.511284,-0.62858 0.403431,-0.40346 0.612961,-0.90722 0.628588,-1.51129 l 0,-43.33242 c 0.0022,-0.31648 0.05124,-0.53938 0.147116,-0.66871 0.09582,-0.12924 0.225108,-0.19165 0.387852,-0.18724 0.153779,-0.004 0.300895,0.058 0.441348,0.18724 0.140403,0.12933 0.314268,0.35224 0.521595,0.66871 l 24.394547,42.15549 c 0.840294,1.40206 1.700701,2.31597 2.581222,2.74171 0.880415,0.42575 1.874563,0.61744 2.982446,0.57509 l 10.485375,0 c 1.1568,-0.029 2.133115,-0.42574 2.928949,-1.1903 0.795695,-0.76456 1.210296,-1.72304 1.243803,-2.87545 z"
         id="path4019"
         style="font-size:106.99500275px;font-variant:normal;font-weight:bold;font-stretch:normal;writing-mode:lr-tb;fill:#ffffff;fill-opacity:1;fill-rule:nonzero;stroke:none;font-family:NeoSans;-inkscape-font-specification:NeoSans-Bold" />
      <path
         d="m 29.168109,887.35189 0,-9.9504 c -0.01566,-0.60406 -0.225185,-1.10782 -0.628587,-1.51129 -0.403506,-0.40344 -0.907268,-0.61297 -1.511286,-0.62859 l -18.4029032,0 c -2.4854046,0.0446 -4.2552565,-0.47254 -5.309561,-1.55141 -1.0543592,-1.07883 -1.5670356,-2.98688 -1.538031,-5.72415 l 0,-55.31571 c -0.015629,-0.60399 -0.2251578,-1.10775 -0.6285867,-1.51128 -0.40347924,-0.40338 -0.90724066,-0.61291 -1.51128578,-0.62859 l -14.01616532,0 c -0.604078,0.0157 -1.107839,0.22521 -1.511285,0.62859 -0.403463,0.40353 -0.612991,0.90729 -0.628587,1.51128 l 0,55.31571 c 0.225125,9.47786 2.850925,15.7459 7.877408,18.80413 5.0264521,3.05823 11.1027915,4.45806 18.2290365,4.1995 2.9868675,-0.0112 6.1610085,-0.14935 9.5224325,-0.4146 3.361338,-0.26526 6.000512,-0.5907 7.917528,-0.97632 0.744444,-0.14712 1.288327,-0.38785 1.631652,-0.72221 0.343219,-0.33435 0.512626,-0.84257 0.508221,-1.52466 z"
         id="path4021"
         style="font-size:106.99500275px;font-variant:normal;font-weight:bold;font-stretch:normal;writing-mode:lr-tb;fill:#ffffff;fill-opacity:1;fill-rule:nonzero;stroke:none;font-family:NeoSans;-inkscape-font-specification:NeoSans-Bold" />
      <path
         d="m 99.035669,857.17969 0,-13.80218 c -0.09146,-11.28554 -3.118482,-19.74248 -9.081083,-25.37086 -5.962718,-5.62823 -14.31267,-8.44127 -25.049883,-8.43912 -4.560635,0.0201 -8.920622,0.194 -13.079974,0.52159 -4.159393,0.32775 -7.395946,0.68885 -9.709668,1.08331 -1.01868,0.14274 -1.789926,0.49938 -2.31374,1.06994 -0.52383,0.57071 -0.786855,1.46232 -0.789076,2.67484 l 0,70.72278 c 0.0022,1.2126 0.265246,2.10422 0.789078,2.67485 0.523815,0.57063 1.29506,0.92727 2.313738,1.06993 2.313724,0.39454 5.550278,0.75564 9.709671,1.08331 4.159353,0.32767 8.519338,0.50153 13.079971,0.5216 10.737213,0.002 19.087165,-2.81081 25.049882,-8.43913 5.962599,-5.62829 8.989624,-14.08524 9.081084,-25.37086 z m -18.29591,0 c -0.05801,7.08167 -1.493501,11.9365 -4.306495,14.56451 -2.813083,2.62804 -6.655933,3.87184 -11.528561,3.7314 -1.393179,-0.002 -2.806386,-0.0245 -4.239623,-0.0669 -1.433296,-0.0423 -2.55227,-0.0914 -3.356925,-0.14712 l 0,-49.96602 c 0.804653,-0.0557 1.923626,-0.1047 3.356925,-0.14712 1.43324,-0.0423 2.846446,-0.0646 4.239623,-0.0669 4.87263,-0.14036 8.715481,1.10344 11.528563,3.73141 2.812992,2.62809 4.248488,7.48292 4.306493,14.5645 z"
         id="path4023"
         style="font-size:106.99500275px;font-variant:normal;font-weight:bold;font-stretch:normal;writing-mode:lr-tb;fill:#ffffff;fill-opacity:1;fill-rule:nonzero;stroke:none;font-family:NeoSans;-inkscape-font-specification:NeoSans-Bold" />
    </g>
  </g>
</svg>
